# xmcd
#
# Track frame offsets: 
#        150
#        18264
#        51780
#        69035
#        97073
#        127010
#        139819
#        169716
#        184404
#
# Disc length: 2815 seconds
#
# Revision: 0
# Processed by: cddbd v1.5.2PL0 Copyright (c) Steve Scherf et al.
# Submitted via: ExactAudioCopyFreeDBPlugin 1.0
#
DISCID=7a0afd09
DTITLE=Girls Aloud - The Loving Kind (Singles Boxset CD20)
DYEAR=2009
DGENRE=Pop
TTITLE0=The Loving Kind (Radio Edit)
TTITLE1=Girls On 45 Volume 2
TTITLE2=Memory Of You
TTITLE3=The Loving Kind (Utah Saints Club Mix)
TTITLE4=The Loving Kind (Wideboys Club Mix)
TTITLE5=The Loving Kind (Wideboys Radio Mix)
TTITLE6=The Loving Kind (Wideboys Dub)
TTITLE7=The Loving Kind (Utah Saints Radio Mix)
TTITLE8=The Loving Kind (Utah Saints Dub)
EXTD=
EXTT0=
EXTT1=
EXTT2=
EXTT3=
EXTT4=
EXTT5=
EXTT6=
EXTT7=
EXTT8=
PLAYORDER=
